<?xml version="1.0" encoding="UTF-8"?>
<svg id="Layer_1" data-name="Layer 1" xmlns="http://www.w3.org/2000/svg" version="1.1" viewBox="0 0 37.21 41.75">
  <defs>
    <style>
      .cls-1 {
        fill: #8de1ce;
        stroke-width: 0px;
      }
    </style>
  </defs>
  <g id="Group_504" data-name="Group 504">
    <path id="Path_7260" data-name="Path 7260" class="cls-1" d="M34.01,32.87c-1.1.83-2.31,1.5-3.59,1.99l-4.14-7.04h.16c2.22,0,4.12-1.6,4.47-3.8l3.74-22.53-4.74-.79-2.37,14.3h-7.85c2.55-5.14.46-11.37-4.68-13.92C9.87-1.46,3.64.63,1.09,5.76c-2.55,5.14-.46,11.37,4.68,13.92.5.25,1.02.46,1.56.62l-.33,2.71h-2.08v4.81h6.05l-4.1,6.99c-1.26-.48-2.44-1.14-3.52-1.94l-3.19,3.6c.24.21,5.91,5.17,18.38,5.29h.44c12.2,0,17.99-5.08,18.23-5.3l-3.2-3.59ZM26.82,19.37l-.6,3.64h-14.82l.28-2.33c1.37-.17,2.69-.61,3.89-1.3h11.25ZM9.49,17.37v-1.73c-.49-.01-.97-.07-1.45-.18-.44-.1-.86-.27-1.25-.49-.4-.23-.76-.51-1.08-.83l1.45-1.45c.69.64,1.61.99,2.55.97v-2.9l-.51-.07c-.82-.06-1.6-.4-2.21-.96-.57-.6-.87-1.41-.82-2.24,0-.44.07-.87.22-1.28.15-.39.37-.74.65-1.04.3-.31.67-.57,1.06-.75.44-.2.92-.32,1.4-.37v-1.45h1.63v1.43c.6.03,1.2.16,1.76.38.52.22,1,.54,1.4.94l-1.43,1.39c-.54-.48-1.24-.76-1.97-.78v2.8l.61.09c.8.08,1.56.39,2.19.9.62.64.94,1.52.88,2.41.03,1.19-.61,2.29-1.66,2.85-.55.3-1.16.49-1.79.55v1.8h-1.63ZM18.58,36.94c-3.01,0-6.01-.4-8.91-1.19l4.66-7.94h8.57l4.7,8c-2.94.79-5.98,1.17-9.02,1.12"/>
    <path id="Path_7261" data-name="Path 7261" class="cls-1" d="M8.32,7.41c-.01.31.11.6.34.82.3.26.66.41,1.05.45v-2.68c-.39.04-.75.21-1.03.49-.24.25-.36.59-.36.93"/>
    <path id="Path_7262" data-name="Path 7262" class="cls-1" d="M12.39,12.24c.03-.36-.1-.71-.35-.97-.12-.13-.27-.22-.44-.27-.23-.06-.46-.11-.69-.14v2.76c.4-.02.79-.18,1.1-.44.26-.24.4-.59.39-.94"/>
  </g>
</svg>