<?xml version="1.0" encoding="UTF-8"?>
<svg id="Layer_1" data-name="Layer 1" xmlns="http://www.w3.org/2000/svg" version="1.1" viewBox="0 0 54.93 52.81">
  <defs>
    <style>
      .cls-1 {
        fill: #ff7800;
        stroke-width: 0px;
      }
    </style>
  </defs>
  <g id="Group_573" data-name="Group 573">
    <g id="Group_483" data-name="Group 483">
      <path id="Path_7439" data-name="Path 7439" class="cls-1" d="M47.16,32.44l-.12.07-.16.09h0l-1.28.72v-3.38l1.57-.86v1.55l4.36-2.51c.37-.22.85-.09,1.07.29.22.37.09.85-.29,1.07l-5.14,2.96Z"/>
      <path id="Path_7440" data-name="Path 7440" class="cls-1" d="M40.02,38.12c.13,0,.27-.03.38-.1l4.05-2.28v1.03c0,.97-.51,1.86-1.35,2.34l-17.39,10.05c-.26.15-.6.06-.75-.2-.05-.08-.07-.18-.07-.27v-20.99c0-.2.1-.38.27-.48l5.43-3.13c.26-.15.6-.06.75.2.05.08.07.18.07.27v5.61c0,.32.27.58.59.58.1,0,.2-.03.29-.08l5.17-2.98c.3-.17.48-.49.48-.83v-6.7c0-.2.1-.38.27-.48l5.42-3.13c.26-.15.6-.06.75.2.05.08.07.18.07.27v6.59l-3.17,1.78c-.38.21-.51.69-.3,1.07.14.25.4.4.68.4.13,0,.27-.03.38-.1l2.41-1.35v3.36l-4.04,2.23c-.38.21-.52.68-.31,1.06.14.25.4.41.69.41.13,0,.26-.03.38-.1l3.28-1.81v3.39l-4.81,2.71c-.38.21-.51.69-.3,1.07.14.25.4.4.68.4"/>
      <path id="Path_7441" data-name="Path 7441" class="cls-1" d="M2.65,11.26L20.93.71c1.64-.94,3.65-.94,5.29,0l18.29,10.56c1.64.95,2.64,2.69,2.65,4.58v4.45l6.61-3.8c.38-.21.86-.07,1.06.31.2.37.08.83-.28,1.05l-7.67,4.41s-.02,0-.03,0l-1.26.71v-7.14c0-1.33-.71-2.56-1.86-3.23L25.44,2.06c-1.15-.66-2.57-.66-3.73,0L3.43,12.62c-1.15.67-1.86,1.9-1.86,3.23v21.12c0,1.33.71,2.56,1.86,3.23l18.29,10.56c1.15.66,2.57.66,3.73,0l18.29-10.56c1.15-.67,1.86-1.9,1.86-3.23v-1.85l1.56-.88v2.73c0,1.89-1.01,3.63-2.65,4.58l-18.29,10.56c-1.64.94-3.65.94-5.29,0L2.65,41.54c-1.64-.95-2.64-2.69-2.65-4.58V15.85c0-1.89,1.01-3.64,2.64-4.58"/>
      <path id="Path_7442" data-name="Path 7442" class="cls-1" d="M47.16,27.29l-1.57.86v-3.37l1.57-.88v1.59l5.93-3.27c.39-.2.86-.04,1.05.34.19.37.06.82-.3,1.03l-6.69,3.69h0Z"/>
      <path id="Path_7443" data-name="Path 7443" class="cls-1" d="M22.27,27.7v20.99c0,.3-.25.55-.55.55-.1,0-.19-.03-.27-.07l-17.39-10.04c-.84-.48-1.35-1.38-1.35-2.34v-19.75c0-.3.25-.55.55-.55.1,0,.19.03.27.07l18.47,10.66c.17.1.27.28.27.48"/>
      <path id="Path_7444" data-name="Path 7444" class="cls-1" d="M18.19,5.3l4.04-2.33c.84-.48,1.86-.48,2.7,0l17.69,10.21c.26.15.35.49.2.75-.05.08-.12.15-.2.2l-5.12,2.96c-.17.1-.38.1-.55,0L18.19,6.25c-.26-.15-.35-.49-.2-.75.05-.08.12-.15.2-.2"/>
      <path id="Path_7445" data-name="Path 7445" class="cls-1" d="M11.11,9.7l18.76,10.83c.26.15.35.49.2.75-.05.08-.12.15-.2.2l-6.02,3.48c-.17.1-.38.1-.55,0L4.54,14.13c-.26-.15-.35-.49-.2-.75.05-.08.12-.15.2-.2l6.02-3.48c.17-.1.38-.1.55,0"/>
      <path id="Path_7446" data-name="Path 7446" class="cls-1" d="M3.26,16.49c.1,0,.19.03.27.07l1.45.84v18.85c0,.47.25.91.66,1.14l16.64,9.6v1.7c0,.3-.25.55-.55.55-.1,0-.19-.03-.27-.07l-17.39-10.04c-.84-.48-1.35-1.38-1.35-2.34v-19.75c0-.3.25-.55.55-.55"/>
      <path id="Path_7447" data-name="Path 7447" class="cls-1" d="M38.07,28.09l-4.94,2.85c-.55.27-1.22.11-1.58-.38v-.03c.17.22.49.29.73.15l5.17-2.99c.3-.17.48-.49.48-.83v-6.7c0-.2.1-.38.27-.48l.43-.25v7.67c0,.4-.22.78-.57.98"/>
      <path id="Path_7448" data-name="Path 7448" class="cls-1" d="M38.64,19.44v7.67c0,.4-.22.78-.57.98l-4.94,2.85c-.18.09-.38.13-.58.13-.4,0-.77-.19-1.01-.51v-.03c.11.14.28.22.46.22.1,0,.19-.03.28-.08l5.17-2.99c.3-.17.48-.49.48-.83v-6.7c0-.2.1-.38.27-.48l.43-.25Z"/>
      <path id="Path_7449" data-name="Path 7449" class="cls-1" d="M22.51,4.02c-.27,0-.54.07-.78.21l-3.53,2.04h-.02c-.26-.16-.35-.5-.2-.76.05-.08.12-.15.2-.2l4.04-2.33c.84-.48,1.86-.48,2.7,0l17.69,10.21c.26.15.35.49.2.75-.05.08-.12.15-.2.2l-1.08.63L23.29,4.23c-.24-.14-.51-.21-.78-.21"/>
      <path id="Path_7450" data-name="Path 7450" class="cls-1" d="M4.54,13.18l6.03-3.48c.17-.1.38-.1.55,0l18.76,10.83c.26.15.35.49.2.75-.05.08-.12.15-.2.2h0L10.99,10.59s-.08-.02-.12-.03c-.04-.02-.08-.03-.13-.03-.09,0-.17.02-.24.06l-6.03,3.48c-.24-.18-.28-.52-.1-.75.04-.06.1-.1.16-.14"/>
      <path id="Path_7451" data-name="Path 7451" class="cls-1" d="M44.45,30.56v3.39l-2.27,1.28v-3.42l2.27-1.25Z"/>
      <path id="Path_7452" data-name="Path 7452" class="cls-1" d="M42.18,26.69l2.27-1.27v3.36l-2.27,1.25v-3.33Z"/>
      <path id="Path_7453" data-name="Path 7453" class="cls-1" d="M41.52,37.4h0l2.93-1.65v1.04c0,.97-.52,1.86-1.35,2.34l-17.39,10.04c-.08.05-.18.07-.27.07-.3,0-.55-.25-.55-.55v-1.7l16.64-9.6Z"/>
      <path id="Path_7454" data-name="Path 7454" class="cls-1" d="M42.18,24.9v-7.49l1.44-.84c.26-.15.6-.06.75.2.05.08.07.18.07.27v6.58l-2.27,1.27Z"/>
    </g>
  </g>
</svg>