<?xml version="1.0" encoding="UTF-8"?>
<svg id="Layer_1" data-name="Layer 1" xmlns="http://www.w3.org/2000/svg" version="1.1" viewBox="0 0 30.62 38.9">
  <defs>
    <style>
      .cls-1 {
        fill: #f0f0f0;
        stroke-width: 0px;
      }
    </style>
  </defs>
  <g id="Group_522" data-name="Group 522">
    <g id="Group_521" data-name="Group 521">
      <path id="Path_7467" data-name="Path 7467" class="cls-1" d="M30.3,34.5c-.35.23-.71.46-1.07.67l-.5.29c-.47.26-.95.51-1.44.75-.11.05-.22.1-.32.15-1.13.52-2.29.97-3.48,1.33-.04.01-.08.03-.13.04-.62.19-1.26.35-1.9.5h0c-.65.15-1.3.26-1.96.37-.02,0-.04,0-.05,0-.62.09-1.25.15-1.87.21-.11,0-.22.01-.34.02-.62.04-1.24.07-1.86.07s-1.26-.03-1.89-.07c-.11,0-.22-.01-.33-.02-.63-.05-1.26-.12-1.89-.21h-.08c-1.31-.21-2.61-.51-3.88-.89l-.12-.04c-.63-.19-1.25-.41-1.86-.65,0,0,0,0-.01,0-.57-.22-1.14-.47-1.7-.74-.07-.03-.15-.07-.22-.1-.51-.25-1.01-.51-1.5-.79-.15-.08-.29-.17-.43-.26-.45-.26-.9-.55-1.34-.84l-.13-.1.09-.05,7.89-3.9c1.32-.61,2.17-1.91,2.2-3.36v-3.26l-.23-.25c-1.4-1.63-2.43-3.55-3-5.62l-.09-.36-.34-.2c-.46-.25-.76-.73-.77-1.26v-3.2c0-.43.21-.84.55-1.11l.33-.27v-5.15c-.13-1.45.38-2.89,1.38-3.95,1.44-1.49,3.92-2.25,7.35-2.25s5.89.75,7.33,2.23c1.01,1.06,1.52,2.5,1.41,3.96v5.16s.32.27.32.27c.34.26.55.67.56,1.1v3.21c-.03.68-.51,1.26-1.18,1.43l-.5.14-.16.45c-.58,1.64-1.42,3.18-2.49,4.55-.26.33-.52.63-.74.86l-.24.25v3.35c.03,1.5.94,2.84,2.33,3.42l8.45,3.83c.05.02.11.05.16.08-.11.07-.22.14-.32.21"/>
    </g>
  </g>
</svg>