<?xml version="1.0" encoding="UTF-8"?>
<svg id="Layer_1" data-name="Layer 1" xmlns="http://www.w3.org/2000/svg" version="1.1" viewBox="0 0 38.78 36.7">
  <defs>
    <style>
      .cls-1 {
        fill: #79b3e5;
        stroke-width: 0px;
      }
    </style>
  </defs>
  <path class="cls-1" d="M18.36,32.39h0c-7.74,0-14.04-6.29-14.05-14.04,0-7.74,6.29-14.05,14.04-14.05h.04c2.87,0,5.71.91,8.06,2.57l2.61-3.42c-3.08-2.23-6.84-3.45-10.65-3.45h-.05C8.23,0,0,8.23,0,18.35s8.23,18.35,18.35,18.35c9.94-.01,18.07-7.97,18.34-17.85h-4.3c-.26,7.51-6.46,13.54-14.03,13.54Z"/>
  <path class="cls-1" d="M12.21,15.71l-3.04,3.04,7.37,7.37c.4.4.95.63,1.52.63h0c.57,0,1.12-.23,1.52-.63L38.78,6.93l-3.04-3.04-17.67,17.67-5.85-5.85Z"/>
</svg>