<?xml version="1.0" encoding="UTF-8"?>
<svg id="Layer_1" data-name="Layer 1" xmlns="http://www.w3.org/2000/svg" version="1.1" viewBox="0 0 30.74 23.29">
  <defs>
    <style>
      .cls-1 {
        fill: #79b3e5;
        stroke-width: 0px;
      }
    </style>
  </defs>
  <g id="Group_538" data-name="Group 538">
    <rect id="Rectangle_546" data-name="Rectangle 546" class="cls-1" x="18.47" y="14.17" width="6.61" height="2.91"/>
    <g id="Group_536" data-name="Group 536">
      <g id="Group_535" data-name="Group 535">
        <path id="Path_7486" data-name="Path 7486" class="cls-1" d="M6.29,13.67c0,.23.08.46.25.62.22.19.5.31.8.34v-2.03c-.3.03-.57.16-.78.37-.18.19-.28.45-.27.71"/>
        <path id="Path_7487" data-name="Path 7487" class="cls-1" d="M8.77,16.4c-.17-.05-.35-.08-.52-.11v2.09c.31-.02.6-.13.84-.33.2-.18.3-.44.29-.71.02-.27-.08-.54-.27-.73-.09-.1-.21-.17-.34-.21"/>
        <path id="Path_7488" data-name="Path 7488" class="cls-1" d="M27.75,0H9.2c-1.65,0-2.98,1.34-2.98,2.98v5.12C2.06,8.91-.66,12.92.14,17.08s4.82,6.87,8.97,6.07c.98-.19,1.92-.57,2.76-1.12h15.88c1.65,0,2.98-1.34,2.98-2.98V2.98c0-1.65-1.34-2.98-2.98-2.98M10.69,18.56c-.22.37-.54.67-.93.88-.42.23-.88.37-1.35.42v1.36h-1.23v-1.31c-.37,0-.74-.05-1.1-.14-.33-.08-.65-.2-.95-.37-.3-.17-.58-.38-.82-.63l1.1-1.1c.52.49,1.22.75,1.93.73v-2.2l-.39-.05c-.62-.05-1.21-.3-1.68-.72-.43-.45-.66-1.07-.62-1.69,0-.33.05-.66.17-.97.11-.29.28-.56.5-.79.23-.24.5-.43.8-.56.34-.15.69-.24,1.06-.28v-1.1h1.23v1.09c.46.02.91.12,1.34.29.4.16.76.4,1.06.71l-1.08,1.06c-.41-.37-.94-.57-1.49-.59v2.12l.46.07c.61.06,1.18.3,1.66.68.47.49.71,1.15.66,1.82,0,.45-.11.89-.33,1.28M27.83,19.05s-.03.07-.08.07h-13.27c1.93-3.76.45-8.37-3.3-10.3-.65-.33-1.34-.57-2.06-.71V2.98s.03-.07.07-.07c0,0,0,0,0,0h18.56s.08.03.08.07h0s0,16.06,0,16.06Z"/>
        <path id="Path_7489" data-name="Path 7489" class="cls-1" d="M11.86,5.26v2.01c.51.26.99.56,1.45.9h11.76v-2.91h-13.21Z"/>
        <path id="Path_7490" data-name="Path 7490" class="cls-1" d="M14.93,9.71c.7.87,1.24,1.85,1.6,2.91h8.55v-2.91h-10.15Z"/>
      </g>
    </g>
  </g>
</svg>