<?xml version="1.0" encoding="UTF-8"?>
<svg id="Layer_1" data-name="Layer 1" xmlns="http://www.w3.org/2000/svg" version="1.1" viewBox="0 0 37.2 36.98">
  <defs>
    <style>
      .cls-1 {
        fill: #21c6be;
        stroke-width: 0px;
      }
    </style>
  </defs>
  <g id="Group_487" data-name="Group 487">
    <g id="Group_486" data-name="Group 486">
      <path id="Path_7449" data-name="Path 7449" class="cls-1" d="M37.19,36.98H3.07C1.38,36.98,0,35.6,0,33.91V13.17c0-.56.14-1.11.41-1.59l.02-.03c.27-.49.65-.9,1.13-1.2L16.96.52c1.09-.7,2.5-.69,3.59.01l15.13,9.81c.46.3.85.71,1.11,1.2l.02.03c.26.49.4,1.03.4,1.58v17.16h-3.6V13.29L18.74,3.65,3.6,13.3v20.08h33.59v3.6Z"/>
      <path id="Path_7450" data-name="Path 7450" class="cls-1" d="M18.34,30.93c-5.79,0-10.48-4.69-10.48-10.48s4.69-10.48,10.48-10.48c2.29,0,4.52.74,6.34,2.13l-1.79,2.35c-1.31-1-2.91-1.54-4.56-1.53-4.16,0-7.53,3.37-7.53,7.53s3.37,7.53,7.53,7.53,7.53-3.37,7.53-7.53h2.95c0,5.78-4.69,10.47-10.48,10.48"/>
      <path id="Path_7451" data-name="Path 7451" class="cls-1" d="M18.18,25.4c-.39,0-.77-.15-1.04-.43l-4.29-4.29,2.08-2.08,3.25,3.25,9.82-9.82,2.08,2.08-10.86,10.86c-.28.28-.65.43-1.04.43"/>
    </g>
  </g>
</svg>