<?xml version="1.0" encoding="UTF-8"?>
<svg id="Layer_1" data-name="Layer 1" xmlns="http://www.w3.org/2000/svg" version="1.1" viewBox="0 0 27 26.75">
  <defs>
    <style>
      .cls-1 {
        fill: #79b3e5;
        stroke-width: 0px;
      }
    </style>
  </defs>
  <g id="Group_540" data-name="Group 540">
    <g id="Group_539" data-name="Group 539">
      <path id="Path_7491" data-name="Path 7491" class="cls-1" d="M24.23,1.8h-10.58v2.71h10.58s.06.02.06.05c0,0,0,0,0,0v17.9s-.03.06-.06.06h-2.49v-1.83c0-.27-.22-.48-.48-.48-.08,0-.16.02-.23.06l-5.09,2.79c-.23.13-.32.42-.19.65.04.08.11.15.19.19l5.09,2.79c.23.13.52.04.65-.19.04-.07.06-.15.06-.23v-1.04h2.49c1.53,0,2.77-1.24,2.77-2.77V4.57c0-1.53-1.24-2.77-2.77-2.77"/>
      <path id="Path_7492" data-name="Path 7492" class="cls-1" d="M2.71,22.46V4.57s.02-.06.05-.06c0,0,0,0,0,0h1.9v1.56c0,.27.21.48.48.48.08,0,.16-.02.23-.06l5.09-2.79c.08-.04.15-.11.19-.19.13-.23.04-.52-.19-.65h0S5.38.06,5.38.06C5.31.02,5.23,0,5.15,0,4.89,0,4.67.21,4.67.48h0v1.32h-1.9c-1.53,0-2.77,1.24-2.77,2.77v17.9c0,1.53,1.24,2.77,2.77,2.77h10.44v-2.71H2.77s-.06-.02-.06-.05c0,0,0,0,0,0"/>
      <path id="Path_7493" data-name="Path 7493" class="cls-1" d="M12.22,11.69c0,.22.08.43.24.57.21.18.47.29.74.32v-1.89c-.27.02-.53.15-.73.34-.17.18-.26.41-.25.66"/>
      <path id="Path_7494" data-name="Path 7494" class="cls-1" d="M14.53,14.23c-.16-.04-.32-.08-.49-.1v1.95c.29-.02.56-.12.78-.31.18-.17.28-.41.27-.66.02-.25-.07-.5-.25-.68-.09-.09-.19-.16-.31-.19"/>
      <path id="Path_7495" data-name="Path 7495" class="cls-1" d="M20.64,13.51c0-3.94-3.2-7.14-7.14-7.14-3.94,0-7.14,3.2-7.14,7.14,0,3.94,3.2,7.14,7.14,7.14h0c3.94,0,7.14-3.2,7.14-7.14h0M16.32,16.25c-.21.35-.51.63-.86.82-.39.21-.82.34-1.26.39v1.27h-1.15v-1.22c-.34,0-.69-.05-1.02-.13-.31-.07-.61-.19-.89-.35-.28-.16-.54-.36-.76-.59l1.02-1.02c.49.45,1.13.7,1.8.68v-2.05l-.36-.05c-.58-.05-1.13-.28-1.56-.68-.4-.42-.61-.99-.58-1.58,0-.31.05-.61.16-.9.1-.27.26-.52.46-.73.21-.22.47-.4.75-.53.31-.14.65-.23.99-.26v-1.02h1.15v1.01c.43.02.85.11,1.24.27.37.15.71.38.99.66l-1,.98c-.38-.34-.88-.54-1.39-.55v1.98l.43.07c.57.06,1.1.28,1.55.64.44.45.66,1.07.62,1.7,0,.42-.1.83-.31,1.19"/>
    </g>
  </g>
</svg>