<?xml version="1.0" encoding="UTF-8"?>
<svg id="Layer_1" data-name="Layer 1" xmlns="http://www.w3.org/2000/svg" version="1.1" viewBox="0 0 27.56 30">
  <defs>
    <style>
      .cls-1 {
        fill: #ff7800;
        stroke-width: 0px;
      }
    </style>
  </defs>
  <g id="Group_603" data-name="Group 603">
    <g id="Group_602" data-name="Group 602">
      <path id="Path_7521" data-name="Path 7521" class="cls-1" d="M.52,18.76C-1.55,11.43,2.71,3.82,10.04,1.74c1.22-.34,2.47-.52,3.74-.52,3.01,0,5.95.98,8.34,2.81l-1.85,2.43c-1.86-1.42-4.14-2.19-6.49-2.18-5.92,0-10.72,4.81-10.72,10.74,0,.98.14,1.96.4,2.9l-2.95.84Z"/>
      <path id="Path_7522" data-name="Path 7522" class="cls-1" d="M16.85,7.62l7.19,1.04c.48.07.92-.26.99-.74.02-.13,0-.27-.03-.4l-2.25-6.91c-.15-.46-.64-.71-1.1-.56-.16.05-.3.14-.4.27l-4.94,5.87c-.31.37-.27.92.1,1.24.13.11.28.17.44.2"/>
      <path id="Path_7523" data-name="Path 7523" class="cls-1" d="M13.78,28.78c-3.01,0-5.95-.98-8.34-2.81l1.85-2.44c1.86,1.42,4.14,2.19,6.49,2.18,5.92,0,10.72-4.81,10.72-10.74,0-1.07-.16-2.14-.48-3.16l2.92-.91c2.26,7.27-1.81,15-9.09,17.25-1.32.41-2.69.62-4.07.62"/>
      <path id="Path_7524" data-name="Path 7524" class="cls-1" d="M10.71,22.39l-7.19-1.03c-.48-.07-.92.26-.99.74-.02.13,0,.27.03.4l2.25,6.91c.15.46.64.71,1.1.56.16-.05.3-.14.4-.27l4.94-5.87c.31-.37.27-.92-.1-1.24-.13-.11-.28-.17-.44-.2"/>
    </g>
  </g>
</svg>