<?xml version="1.0" encoding="UTF-8"?>
<svg id="Layer_1" data-name="Layer 1" xmlns="http://www.w3.org/2000/svg" version="1.1" viewBox="0 0 46.06 47.88">
  <defs>
    <style>
      .cls-1 {
        fill: #002361;
      }

      .cls-1, .cls-2 {
        stroke-width: 0px;
      }

      .cls-2 {
        fill: #79b3e5;
      }
    </style>
  </defs>
  <g id="Group_383" data-name="Group 383">
    <path id="Path_7200" data-name="Path 7200" class="cls-2" d="M2.92,0c-.47,0-.93.12-1.35.33C.6.83-.01,1.83,0,2.92v42.04c0,1.61,1.3,2.92,2.91,2.92.6,0,1.19-.19,1.69-.54l28.79-20.37c1.67-1.19,2.07-3.51.88-5.18-.24-.34-.54-.64-.88-.88-1.29-.91-3.01-.91-4.29,0l-10.9,7.72c-1.99,1.4-4.65,1.4-6.64,0-2.59-1.83-3.2-5.42-1.37-8.01.37-.53.83-.99,1.36-1.36l9.73-6.91L4.6.55C4.11.19,3.53,0,2.93,0"/>
    <path id="Path_7201" data-name="Path 7201" class="cls-1" d="M44.49.33c-.97-.51-2.14-.43-3.02.21L12.56,21c-1.62,1.28-1.91,3.62-.63,5.25.22.28.49.54.78.74,1.3.92,3.03.92,4.33,0l10.9-7.72c1.98-1.4,4.62-1.4,6.6,0,2.58,1.82,3.19,5.39,1.36,7.97-.37.53-.83.99-1.36,1.36l-9.78,6.92,16.7,11.82c1.31.93,3.13.62,4.06-.69.35-.49.54-1.08.54-1.69V2.92c.01-1.09-.6-2.1-1.58-2.59"/>
  </g>
</svg>