<?xml version="1.0" encoding="UTF-8"?>
<svg id="Layer_1" data-name="Layer 1" xmlns="http://www.w3.org/2000/svg" version="1.1" viewBox="0 0 29.78 39.77">
  <defs>
    <style>
      .cls-1 {
        fill: #f0f0f0;
        stroke-width: 0px;
      }
    </style>
  </defs>
  <g id="Group_523" data-name="Group 523">
    <g id="Group_519" data-name="Group 519">
      <path id="Path_7466" data-name="Path 7466" class="cls-1" d="M29.78,35.24l-.02-.04h.02s-.05-.04-.05-.04c-1.15-1.77-2.57-3.35-4.19-4.69-2.17-1.57-2.34-2.47-2.34-2.47,0,0-.48-1.42.72-5.47s2.18-11.99-.24-16.88c-.91-1.93-2.39-3.54-4.23-4.61h0l-.04-.02c-.69-.38-1.44-.65-2.22-.77-1.6-.33-3.25-.32-4.85.03h0c-2.81.74-5.12,2.72-6.29,5.38-2.41,4.9-1.45,12.85-.24,16.89s.72,5.46.72,5.46c0,0-.16.9-2.33,2.47-1.62,1.34-3.04,2.91-4.21,4.66l.08-.02.1.07c.42.3.86.58,1.3.84.14.09.28.17.42.26.48.28.96.54,1.46.79.07.03.14.07.21.1.54.26,1.09.51,1.65.73,0,0,0,0,.01,0,.59.24,1.19.45,1.8.64l.11.04c1.23.38,2.49.68,3.77.88h.08c.61.1,1.22.17,1.83.22.1,0,.21.02.32.02.61.04,1.22.07,1.84.07s1.21-.03,1.81-.06c.11,0,.22-.01.33-.02.6-.05,1.22-.12,1.82-.21.02,0,.03,0,.05,0,.64-.1,1.27-.22,1.9-.37h0c.62-.15,1.24-.31,1.84-.5.04-.01.09-.03.12-.04,1.16-.36,2.29-.81,3.38-1.33.1-.05.21-.1.31-.15.48-.24.94-.48,1.4-.75l.48-.29c.35-.21.7-.44,1.04-.67.08-.06.17-.11.25-.17l.07.02Z"/>
    </g>
  </g>
</svg>