<?xml version="1.0" encoding="UTF-8"?>
<svg id="Layer_1" data-name="Layer 1" xmlns="http://www.w3.org/2000/svg" version="1.1" viewBox="0 0 16.44 16.44">
  <defs>
    <style>
      .cls-1 {
        fill: #21c6be;
        stroke-width: 0px;
      }
    </style>
  </defs>
  <g id="Group_510" data-name="Group 510">
    <g id="Group_509" data-name="Group 509">
      <path id="Path_7457" data-name="Path 7457" class="cls-1" d="M8.22,16.44C3.68,16.44,0,12.76,0,8.22S3.68,0,8.22,0s8.22,3.68,8.22,8.22h0c0,4.54-3.68,8.22-8.22,8.22M8.22,1.83c-3.53,0-6.39,2.86-6.39,6.39s2.86,6.39,6.39,6.39,6.39-2.86,6.39-6.39c0-3.53-2.86-6.39-6.39-6.39"/>
      <rect id="Rectangle_519" data-name="Rectangle 519" class="cls-1" x="5.11" y="7.61" width="8.21" height="1.94" transform="translate(-3.37 9.03) rotate(-45)"/>
      <path id="Path_7458" data-name="Path 7458" class="cls-1" d="M8.28,10.82l-1.33,1.39-3.61-3.57,1.34-1.39,3.61,3.57Z"/>
    </g>
  </g>
</svg>