<?xml version="1.0" encoding="UTF-8"?>
<svg id="Layer_1" data-name="Layer 1" xmlns="http://www.w3.org/2000/svg" version="1.1" viewBox="0 0 26.52 26.52">
  <defs>
    <style>
      .cls-1 {
        fill: none;
      }

      .cls-1, .cls-2 {
        stroke-width: 0px;
      }

      .cls-2 {
        fill: #c5c4c2;
      }
    </style>
  </defs>
  <g id="Group_453" data-name="Group 453">
    <g id="Path_7426" data-name="Path 7426">
      <path class="cls-1" d="M5.63,7.59c2.18,0,4.28.86,5.82,2.41l5.42,5.42v-4.79c0-1.68,1.36-3.05,3.05-3.05h4.65c1.08,0,1.96-.87,1.96-1.95h0V1.96c0-1.08-.88-1.96-1.96-1.96H1.95C.87,0,0,.87,0,1.95H0v3.67c0,1.08.87,1.95,1.95,1.96h3.67Z"/>
      <path class="cls-2" d="M2,2v3.58h3.63c2.73,0,5.3,1.06,7.23,3l2.01,2.01c.02-2.76,2.28-5,5.05-5h4.61v-3.58H2M1.95,0h22.61C25.64,0,26.52.88,26.52,1.95v3.68c0,1.08-.88,1.95-1.95,1.95h-4.65c-1.68,0-3.05,1.36-3.05,3.05v4.78l-5.42-5.42c-1.55-1.55-3.62-2.41-5.82-2.41H1.95C.87,7.58,0,6.71,0,5.63V1.95C0,.88.87,0,1.95,0Z"/>
    </g>
    <g id="Path_7427" data-name="Path 7427">
      <path class="cls-1" d="M19.91,9.61c-.56,0-1.02.46-1.02,1.02v7.1c0,.39-.2.75-.53.94-.41.24-.93.17-1.26-.17l-7.08-7.08c-1.16-1.17-2.74-1.82-4.39-1.81H1.96c-1.08,0-1.96.88-1.96,1.96h0v13c0,1.08.88,1.96,1.95,1.96h22.61c1.08,0,1.95-.88,1.95-1.96v-13c0-1.08-.87-1.95-1.95-1.96h-4.65Z"/>
      <path class="cls-2" d="M2,11.61v12.91h22.52v-12.91h-3.63v6.13c0,1.12-.59,2.14-1.54,2.68-.46.26-.98.4-1.51.4-.81,0-1.58-.32-2.15-.89l-7.08-7.08c-.79-.79-1.85-1.23-2.97-1.23h-3.63M1.95,9.61h3.67c1.66,0,3.21.65,4.39,1.82l7.08,7.08c.33.33.84.41,1.26.17.34-.19.53-.56.53-.94v-7.1c0-.57.46-1.02,1.02-1.02h4.65c1.08,0,1.95.88,1.95,1.95v13c0,1.08-.88,1.95-1.95,1.95H1.95C.88,26.52,0,25.64,0,24.56v-13C0,10.48.88,9.61,1.95,9.61Z"/>
    </g>
  </g>
</svg>