<?xml version="1.0" encoding="UTF-8"?>
<svg id="Layer_1" data-name="Layer 1" xmlns="http://www.w3.org/2000/svg" version="1.1" viewBox="0 0 28.06 28.06">
  <defs>
    <style>
      .cls-1 {
        fill: #79b3e5;
        stroke-width: 0px;
      }
    </style>
  </defs>
  <g id="Group_551" data-name="Group 551">
    <g id="Group_553" data-name="Group 553">
      <g id="Group_552" data-name="Group 552">
        <path id="Path_7499" data-name="Path 7499" class="cls-1" d="M14.03,28.06C6.28,28.06,0,21.78,0,14.03S6.28,0,14.03,0c7.75,0,14.03,6.28,14.03,14.03,0,7.75-6.29,14.02-14.03,14.03M14.03,2.59C7.71,2.59,2.59,7.71,2.59,14.03s5.12,11.44,11.44,11.44,11.44-5.12,11.44-11.44h0c0-6.31-5.13-11.43-11.44-11.43"/>
        <path id="Path_7500" data-name="Path 7500" class="cls-1" d="M18.85,16.41c.04,1.29-.67,2.5-1.81,3.1-.6.33-1.26.53-1.94.6v1.96h-1.77v-1.89c-.53-.01-1.06-.08-1.58-.2-.48-.11-.94-.29-1.36-.54-.43-.24-.83-.55-1.18-.9l1.57-1.58c.75.7,1.75,1.07,2.78,1.05v-3.16l-.56-.08c-.9-.07-1.74-.43-2.41-1.04-.62-.65-.95-1.53-.9-2.43,0-.47.08-.94.24-1.39.16-.42.4-.81.71-1.13.33-.34.72-.62,1.15-.81.48-.22,1-.35,1.52-.4v-1.58h1.77v1.56c.66.03,1.3.17,1.92.41.57.24,1.09.58,1.53,1.02l-1.55,1.52c-.59-.53-1.35-.83-2.14-.84v3.04l.66.1c.87.09,1.7.43,2.38.98.68.7,1.02,1.65.96,2.62M13.55,12.6v-2.91c-.42.04-.82.23-1.12.53-.26.28-.4.64-.39,1.01-.01.33.12.66.36.89.32.28.72.45,1.15.49M16.47,16.48c.03-.39-.11-.77-.38-1.05-.13-.14-.3-.24-.48-.3-.25-.07-.5-.12-.76-.15v3c.44-.02.86-.19,1.2-.48.28-.26.43-.64.42-1.02"/>
      </g>
    </g>
  </g>
</svg>