<?xml version="1.0" encoding="UTF-8"?>
<svg id="Layer_1" data-name="Layer 1" xmlns="http://www.w3.org/2000/svg" version="1.1" viewBox="0 0 24.37 22.71">
  <defs>
    <style>
      .cls-1 {
        fill: #79b3e5;
        stroke-width: 0px;
      }
    </style>
  </defs>
  <g id="Group_567" data-name="Group 567">
    <g id="Group_566" data-name="Group 566">
      <path id="Path_7508" data-name="Path 7508" class="cls-1" d="M21.81,22.71H2.56C1.15,22.71,0,21.56,0,20.15V2.56C0,1.15,1.15,0,2.56,0h19.25c1.41,0,2.56,1.15,2.56,2.56v17.59c0,1.41-1.15,2.56-2.56,2.56M3,19.71h18.37V3H3v16.71Z"/>
      <rect id="Rectangle_563" data-name="Rectangle 563" class="cls-1" x="5.84" y="5.42" width="12.71" height="3"/>
      <rect id="Rectangle_564" data-name="Rectangle 564" class="cls-1" x="5.84" y="10.01" width="8.68" height="3"/>
      <rect id="Rectangle_565" data-name="Rectangle 565" class="cls-1" x="5.84" y="14.61" width="8.68" height="3"/>
      <path id="Path_7509" data-name="Path 7509" class="cls-1" d="M20.19,14.54c.02.66-.34,1.28-.93,1.59-.31.17-.65.27-1,.31v1h-.91v-.97c-.27,0-.54-.04-.81-.1-.25-.06-.48-.15-.7-.27-.22-.13-.42-.28-.6-.46l.81-.81c.39.36.9.55,1.42.54v-1.62l-.29-.04c-.46-.04-.89-.22-1.23-.53-.32-.33-.48-.78-.46-1.24,0-.24.04-.48.12-.71.08-.22.21-.41.36-.58.17-.18.37-.32.59-.42.25-.11.51-.18.78-.2v-.81h.91v.8c.34.02.67.09.98.21.29.12.56.3.78.52l-.79.78c-.3-.27-.69-.42-1.1-.43v1.56l.34.05c.45.04.87.22,1.22.5.35.36.53.84.49,1.34M17.48,12.58v-1.49c-.22.02-.42.12-.57.27-.13.14-.2.33-.2.52,0,.17.06.34.19.45.16.14.37.23.59.25M18.97,14.57c.01-.2-.06-.4-.2-.54-.07-.07-.15-.12-.25-.15-.13-.03-.26-.06-.39-.08v1.54c.23-.01.44-.1.61-.24.14-.14.22-.33.21-.52"/>
    </g>
  </g>
</svg>